Coordinates
version=1
nRows=8
nColumns=36
inDegrees=yes

Units are S.I. units (second, meters, Newtons, ...)
If the header above contains a line with 'inDegrees', this indicates whether rotational values are in degrees (yes) or radians (no).

endheader
time	pelvis_tilt	pelvis_list	pelvis_rotation	pelvis_tx	pelvis_ty	pelvis_tz	hip_flexion_r	hip_adduction_r	hip_rotation_r	knee_angle_r	knee_angle_r_beta	ankle_angle_r	subtalar_angle_r	mtp_angle_r	hip_flexion_l	hip_adduction_l	hip_rotation_l	knee_angle_l	knee_angle_l_beta	ankle_angle_l	subtalar_angle_l	mtp_angle_l	lumbar_extension	lumbar_bending	lumbar_rotation	arm_flex_r	arm_add_r	arm_rot_r	elbow_flex_r	pro_sup_r	arm_flex_l	arm_add_l	arm_rot_l	elbow_flex_l	pro_sup_l
      0.00000000	      0.46805241	     -0.44219418	     -1.97631438	     -0.99498727	      1.31026694	     -0.08366881	      8.64189943	     -2.08726019	     -0.45382030	     21.72116984	      0.37910593	      0.76190995	    -21.03981748	     -5.80095875	      4.73831390	      0.82432136	      8.71113657	     16.73666480	      0.29210991	      8.93465205	    -10.37886311	     -5.80095875	     -9.09083526	     -0.12521875	     -4.70352428	     10.48110416	     -4.65218436	     32.72172664	     21.42152183	     70.76059446	      8.17264716	     -4.28503184	     21.16190453	     19.77233354	     64.99844929
      0.00416670	     -0.86843893	      0.00306615	     -0.38576064	     -0.99347116	      1.30965439	     -0.08487380	      9.22306062	     -2.60977110	     -1.08870953	     20.68153988	      0.36096097	      3.76722922	    -17.96188524	     -5.92523037	      6.27242703	      1.71027967	     12.39424012	     16.24752887	      0.28357287	      7.66089586	    -11.65410809	     -5.92523037	     -7.01387656	     -0.52398881	     -5.68028736	      9.45961803	     -3.98061345	     31.03309348	     20.82107698	     70.81964342	      8.25692009	     -3.89483672	     20.28177414	     19.58686178	     65.01818240
      0.00833330	     -1.59774034	      0.42057875	     -0.02220782	     -0.99269132	      1.30839788	     -0.08445230	      9.51831377	     -3.03821627	     -2.04629956	     19.77796582	      0.34519062	      3.90229089	    -18.23034604	     -6.00747437	      7.04464962	      2.05315615	     13.01787108	     16.15512249	      0.28196008	      6.62538762	    -12.08254933	     -6.00747437	     -6.29770622	     -1.07408865	     -6.00268490	      8.96852151	     -3.33735042	     29.47252677	     20.83102394	     70.95329922	      8.36154236	     -4.10387516	     19.59852152	     19.78260083	     65.02836643
      0.01250000	     -1.21839348	      0.64413792	      0.35850378	     -0.99319828	      1.30592933	     -0.08425817	      9.32285085	     -3.34903169	     -2.38718023	     20.17662510	      0.35214854	      4.82303387	    -18.73555890	     -6.75615262	      6.59375403	      2.40961339	     14.42403167	     16.09489337	      0.28090888	      5.91932899	    -14.22805920	     -6.75615262	     -7.14122598	     -1.41594865	     -5.36941236	      8.07051911	     -2.51340304	     18.87135627	     21.59276420	     86.91508900	      8.77250760	     -4.12696225	     16.80636571	     20.35993579	     71.16565012
      0.01666670	     -1.05136953	      0.80697045	      0.63122556	     -0.99338194	      1.30333477	     -0.08460343	      9.37447698	     -3.59257090	     -2.71452872	     20.72725708	      0.36175888	      5.44619567	    -19.33832435	     -6.82377311	      6.47715433	      2.67152130	     15.23688990	     16.13988980	      0.28169422	      6.05359700	    -15.07699807	     -6.82377311	     -7.58403787	     -1.57417944	     -5.30439383	      8.07818575	     -2.50598485	     19.13579658	     21.92325282	     86.14242074	      8.89761072	     -4.37319251	     16.81866693	     20.81818038	     70.85133034
      0.02083330	     -0.85458441	      0.95326842	      0.79806284	     -0.99371366	      1.30732718	     -0.08493417	      9.32591769	     -3.76450453	     -2.76176152	     21.13832819	      0.36893343	      5.66864603	    -19.87368743	     -7.01344071	      6.29564568	      2.91653462	     16.11994235	     16.18167665	      0.28242354	      5.46153361	    -16.71642507	     -7.01344071	     -7.82630978	     -1.65889224	     -5.28389024	      8.22806280	     -2.76001565	     21.13515998	     22.18745784	     84.22876842	      8.77744525	     -4.42731199	     17.10112047	     21.26989509	     70.45524607
      0.02500000	     -0.60447304	      1.05597729	      1.08690251	     -0.99373136	      1.30500327	     -0.08482553	      9.22730660	     -3.95633885	     -2.99126942	     21.53679958	      0.37588806	      5.87916024	    -20.26240374	     -7.13166010	      6.14776520	      3.10031075	     16.76000726	     16.38575329	      0.28598535	      5.32210548	    -17.84991613	     -7.13166010	     -8.06921388	     -1.67627072	     -5.21304900	      8.49540360	     -3.10558836	     23.93625282	     22.32506840	     83.38309192	      8.84168562	     -4.42538170	     17.70228808	     21.60762063	     70.49805506
      0.02916670	     -0.29302794	      1.09879609	      1.36301215	     -0.99387857	      1.30926255	     -0.08480200	      8.75494564	     -3.97944282	     -3.21212594	     21.44298975	      0.37425077	      5.60417088	    -20.45843857	     -7.15988708	      5.87762344	      3.15868565	     17.20289018	     16.50279749	      0.28802815	      5.30710456	    -18.02758364	     -7.15988708	     -8.24045231	     -1.62764738	     -5.25059478	      8.66914288	     -3.19198030	     24.76663026	     22.09982054	     83.09892795	      8.99027452	     -4.22804566	     17.71145565	     21.26966431	     70.48267138
